<?xml version="1.0" encoding="UTF-8"?>
<svg version="1.1" xmlns="http://www.w3.org/2000/svg" width="271" height="263">
<path d="M0 0 C89.43 0 178.86 0 271 0 C271 86.79 271 173.58 271 263 C181.57 263 92.14 263 0 263 C0 176.21 0 89.42 0 0 Z " fill="#FBFCFB" transform="translate(0,0)"/>
<path d="M0 0 C6.40129717 4.73254522 13.3378057 10.33082328 15.83203125 18.09375 C16.64607422 17.67802734 16.64607422 17.67802734 17.4765625 17.25390625 C18.19199219 16.89167969 18.90742188 16.52945313 19.64453125 16.15625 C20.70607422 15.61677734 20.70607422 15.61677734 21.7890625 15.06640625 C29.48819873 11.40085191 41.1538206 12.02239011 49.33203125 14.21875 C59.97533134 18.10382558 68.19218263 25.77248606 73.09765625 35.9453125 C73.94553551 38.42581034 74.13485402 40.73934016 74.39453125 43.34375 C74.71936327 45.90736282 74.71936327 45.90736282 75.83203125 48.09375 C78.4520078 49.62206966 80.97274006 50.36600786 83.88671875 51.1953125 C93.74923447 54.2037722 99.95125134 61.84077505 105.21875 70.328125 C109.4733545 78.98661837 109.15336213 90.23540034 107.06640625 99.48828125 C103.43874976 110.01136416 96.67355142 118.90192759 86.64453125 123.96875 C85.05264166 124.70425957 83.44830342 125.41349189 81.83203125 126.09375 C81.11877686 126.44195801 80.40552246 126.79016602 79.6706543 127.14892578 C76.0850302 128.34238628 72.74836692 128.31152486 69.01953125 128.21875 C68.32666016 128.20972656 67.63378906 128.20070312 66.91992188 128.19140625 C65.2238073 128.16801157 63.52787254 128.13214641 61.83203125 128.09375 C64.01875246 131.65029394 66.20586206 135.20659866 68.39331055 138.76269531 C69.13527575 139.96901204 69.87714023 141.17539072 70.61889648 142.38183594 C71.33944048 143.55375241 72.06031329 144.72546678 72.78152466 145.89697266 C73.82920661 147.60134082 74.87239983 149.30846558 75.91552734 151.015625 C77.07700134 152.8810854 78.26561374 154.73049903 79.50244141 156.546875 C82.83557408 161.45376281 82.83557408 161.45376281 82.81835938 164.56347656 C81.39916713 168.20419648 79.31970487 169.10484712 75.96875 171.046875 C75.38035843 171.39256531 74.79196686 171.73825562 74.18574524 172.09442139 C72.94183432 172.82126187 71.69332821 173.54028715 70.44067383 174.25195312 C68.52786979 175.33901116 66.62948015 176.44823358 64.73242188 177.5625 C54.66879842 183.41129574 54.66879842 183.41129574 50.83203125 184.09375 C46.01391859 177.01449061 41.49293763 169.76951104 37.01953125 162.46875 C36.30908238 161.31228702 35.59855116 160.15587464 34.88793945 158.99951172 C30.37686427 151.65147881 25.9153232 144.27606368 21.53125 136.8515625 C19.91174269 134.11860272 19.91174269 134.11860272 18.1015625 131.8359375 C16.83203125 130.09375 16.83203125 130.09375 16.83203125 128.09375 C3.30203125 128.42375 -10.22796875 128.75375 -24.16796875 129.09375 C-22.51796875 130.41375 -20.86796875 131.73375 -19.16796875 133.09375 C-18.47965659 137.30010211 -18.69486056 139.31650084 -20.91796875 142.96875 C-23.12957772 145.05749181 -24.19547489 145.77526851 -27.16796875 146.09375 C-27.49796875 147.41375 -27.82796875 148.73375 -28.16796875 150.09375 C-29.81796875 149.76375 -31.46796875 149.43375 -33.16796875 149.09375 C-33.16796875 148.10375 -33.16796875 147.11375 -33.16796875 146.09375 C-33.74546875 146.01125 -34.32296875 145.92875 -34.91796875 145.84375 C-37.91319458 144.84534139 -39.27882023 143.61261469 -41.16796875 141.09375 C-40.91796875 138.34375 -40.91796875 138.34375 -40.16796875 136.09375 C-37.79296875 136.40625 -37.79296875 136.40625 -35.16796875 137.09375 C-34.50796875 138.08375 -33.84796875 139.07375 -33.16796875 140.09375 C-30.08431004 140.3439657 -30.08431004 140.3439657 -27.16796875 140.09375 C-26.83796875 138.77375 -26.50796875 137.45375 -26.16796875 136.09375 C-26.93882813 135.75601563 -27.7096875 135.41828125 -28.50390625 135.0703125 C-29.50679688 134.62429687 -30.5096875 134.17828125 -31.54296875 133.71875 C-32.54070312 133.27789062 -33.5384375 132.83703125 -34.56640625 132.3828125 C-37.16796875 131.09375 -37.16796875 131.09375 -39.16796875 129.09375 C-41.69870221 128.81036921 -41.69870221 128.81036921 -44.68066406 128.88598633 C-45.83657043 128.88871048 -46.99247681 128.89143463 -48.18341064 128.89424133 C-50.07068878 128.90985359 -50.07068878 128.90985359 -51.99609375 128.92578125 C-53.97691415 128.92155518 -55.95773546 128.91728517 -57.93854904 128.91058636 C-62.82154592 128.89560317 -67.70405791 128.89731822 -72.58691406 128.93920898 C-102.45914108 129.17180879 -102.45914108 129.17180879 -113.16796875 121.09375 C-113.98338135 120.50787109 -114.79879395 119.92199219 -115.63891602 119.31835938 C-123.56141114 113.31667134 -128.49408872 103.78030167 -130.16796875 94.09375 C-131.39934601 82.4640759 -129.0270777 73.27684012 -122.29296875 63.71875 C-115.92899036 55.87364109 -108.128619 50.30722783 -98.16796875 48.09375 C-96.50155118 48.06493586 -94.83428608 48.05962746 -93.16796875 48.09375 C-93.214375 47.43890625 -93.26078125 46.7840625 -93.30859375 46.109375 C-93.84439724 32.56120112 -88.37139142 20.38735425 -79.65625 10.140625 C-57.90781012 -12.56958612 -26.74003529 -16.68051449 0 0 Z " fill="#E0F0F6" transform="translate(152.16796875,25.90625)"/>
<path d="M0 0 C6.40129717 4.73254522 13.3378057 10.33082328 15.83203125 18.09375 C16.64607422 17.67802734 16.64607422 17.67802734 17.4765625 17.25390625 C18.19199219 16.89167969 18.90742188 16.52945313 19.64453125 16.15625 C20.70607422 15.61677734 20.70607422 15.61677734 21.7890625 15.06640625 C29.48819873 11.40085191 41.1538206 12.02239011 49.33203125 14.21875 C59.97533134 18.10382558 68.19218263 25.77248606 73.09765625 35.9453125 C73.94553551 38.42581034 74.13485402 40.73934016 74.39453125 43.34375 C74.71936327 45.90736282 74.71936327 45.90736282 75.83203125 48.09375 C78.4520078 49.62206966 80.97274006 50.36600786 83.88671875 51.1953125 C93.74923447 54.2037722 99.95125134 61.84077505 105.21875 70.328125 C109.4733545 78.98661837 109.15336213 90.23540034 107.06640625 99.48828125 C103.43874976 110.01136416 96.67355142 118.90192759 86.64453125 123.96875 C85.05264166 124.70425957 83.44830342 125.41349189 81.83203125 126.09375 C81.11877686 126.44195801 80.40552246 126.79016602 79.6706543 127.14892578 C76.0850302 128.34238628 72.74836692 128.31152486 69.01953125 128.21875 C68.32666016 128.20972656 67.63378906 128.20070312 66.91992188 128.19140625 C65.2238073 128.16801157 63.52787254 128.13214641 61.83203125 128.09375 C64.01875246 131.65029394 66.20586206 135.20659866 68.39331055 138.76269531 C69.13527575 139.96901204 69.87714023 141.17539072 70.61889648 142.38183594 C71.33944048 143.55375241 72.06031329 144.72546678 72.78152466 145.89697266 C73.82920661 147.60134082 74.87239983 149.30846558 75.91552734 151.015625 C77.07700134 152.8810854 78.26561374 154.73049903 79.50244141 156.546875 C82.83557408 161.45376281 82.83557408 161.45376281 82.81835938 164.56347656 C81.39916713 168.20419648 79.31970487 169.10484712 75.96875 171.046875 C75.38035843 171.39256531 74.79196686 171.73825562 74.18574524 172.09442139 C72.94183432 172.82126187 71.69332821 173.54028715 70.44067383 174.25195312 C68.52786979 175.33901116 66.62948015 176.44823358 64.73242188 177.5625 C54.66879842 183.41129574 54.66879842 183.41129574 50.83203125 184.09375 C46.01391859 177.01449061 41.49293763 169.76951104 37.01953125 162.46875 C36.30908238 161.31228702 35.59855116 160.15587464 34.88793945 158.99951172 C30.37686427 151.65147881 25.9153232 144.27606368 21.53125 136.8515625 C19.91174269 134.11860272 19.91174269 134.11860272 18.1015625 131.8359375 C16.83203125 130.09375 16.83203125 130.09375 16.83203125 128.09375 C3.30203125 128.42375 -10.22796875 128.75375 -24.16796875 129.09375 C-22.51796875 130.41375 -20.86796875 131.73375 -19.16796875 133.09375 C-18.47965659 137.30010211 -18.69486056 139.31650084 -20.91796875 142.96875 C-23.12957772 145.05749181 -24.19547489 145.77526851 -27.16796875 146.09375 C-27.49796875 147.41375 -27.82796875 148.73375 -28.16796875 150.09375 C-29.81796875 149.76375 -31.46796875 149.43375 -33.16796875 149.09375 C-33.16796875 148.10375 -33.16796875 147.11375 -33.16796875 146.09375 C-33.74546875 146.01125 -34.32296875 145.92875 -34.91796875 145.84375 C-37.91319458 144.84534139 -39.27882023 143.61261469 -41.16796875 141.09375 C-40.91796875 138.34375 -40.91796875 138.34375 -40.16796875 136.09375 C-37.79296875 136.40625 -37.79296875 136.40625 -35.16796875 137.09375 C-34.50796875 138.08375 -33.84796875 139.07375 -33.16796875 140.09375 C-30.08431004 140.3439657 -30.08431004 140.3439657 -27.16796875 140.09375 C-26.83796875 138.77375 -26.50796875 137.45375 -26.16796875 136.09375 C-26.93882813 135.75601563 -27.7096875 135.41828125 -28.50390625 135.0703125 C-29.50679688 134.62429687 -30.5096875 134.17828125 -31.54296875 133.71875 C-32.54070312 133.27789062 -33.5384375 132.83703125 -34.56640625 132.3828125 C-37.16796875 131.09375 -37.16796875 131.09375 -39.16796875 129.09375 C-41.69870221 128.81036921 -41.69870221 128.81036921 -44.68066406 128.88598633 C-45.83657043 128.88871048 -46.99247681 128.89143463 -48.18341064 128.89424133 C-50.07068878 128.90985359 -50.07068878 128.90985359 -51.99609375 128.92578125 C-53.97691415 128.92155518 -55.95773546 128.91728517 -57.93854904 128.91058636 C-62.82154592 128.89560317 -67.70405791 128.89731822 -72.58691406 128.93920898 C-102.45914108 129.17180879 -102.45914108 129.17180879 -113.16796875 121.09375 C-113.98338135 120.50787109 -114.79879395 119.92199219 -115.63891602 119.31835938 C-123.56141114 113.31667134 -128.49408872 103.78030167 -130.16796875 94.09375 C-131.39934601 82.4640759 -129.0270777 73.27684012 -122.29296875 63.71875 C-115.92899036 55.87364109 -108.128619 50.30722783 -98.16796875 48.09375 C-96.50155118 48.06493586 -94.83428608 48.05962746 -93.16796875 48.09375 C-93.214375 47.43890625 -93.26078125 46.7840625 -93.30859375 46.109375 C-93.84439724 32.56120112 -88.37139142 20.38735425 -79.65625 10.140625 C-57.90781012 -12.56958612 -26.74003529 -16.68051449 0 0 Z M-73.47265625 13.875 C-79.91415362 22.30534678 -85.07981363 31.77142322 -85.79296875 42.46875 C-85.86773437 43.52835938 -85.9425 44.58796875 -86.01953125 45.6796875 C-86.06851563 46.47632813 -86.1175 47.27296875 -86.16796875 48.09375 C-85.61109375 48.19171875 -85.05421875 48.2896875 -84.48046875 48.390625 C-79.45029752 49.37626666 -75.28413228 50.80520695 -70.796875 53.2890625 C-69.17191749 54.24138612 -69.17191749 54.24138612 -67.16796875 54.09375 C-67.49796875 55.74375 -67.82796875 57.39375 -68.16796875 59.09375 C-71.59821047 58.67542784 -74.22086936 58.06872245 -77.36328125 56.58203125 C-81.41770079 54.80725233 -85.09203847 54.55456316 -89.48046875 54.59375 C-90.60086548 54.60233032 -90.60086548 54.60233032 -91.74389648 54.61108398 C-98.17435593 54.81811341 -102.8944218 56.31453537 -108.16796875 60.09375 C-109.24111328 60.82078125 -109.24111328 60.82078125 -110.3359375 61.5625 C-116.67533611 66.41517286 -121.26531871 73.15903687 -122.48144531 81.15478516 C-123.23819041 89.63299222 -122.93576519 97.7930617 -118.16796875 105.09375 C-117.75546875 105.78726563 -117.34296875 106.48078125 -116.91796875 107.1953125 C-112.2761102 114.23722292 -105.06832923 118.42670266 -97.16796875 121.09375 C-93.83170559 121.39897831 -93.83170559 121.39897831 -90.14889526 121.36117554 C-89.10669773 121.36797221 -89.10669773 121.36797221 -88.04344571 121.37490618 C-85.72144125 121.38753935 -83.39967168 121.38593051 -81.07763672 121.38427734 C-79.41003621 121.39026347 -77.74243846 121.39706921 -76.07484436 121.40463257 C-71.5476719 121.42229601 -67.02057507 121.42698823 -62.49337149 121.42826414 C-59.66183405 121.42968666 -56.83031578 121.43395827 -53.99878311 121.43925858 C-44.11115552 121.4577634 -34.22358183 121.46592905 -24.3359375 121.46435547 C-15.1354548 121.46315551 -5.93520724 121.48422806 3.26521599 121.5158428 C11.17541321 121.54205021 19.08553388 121.55272082 26.99577415 121.55144465 C31.71504154 121.55093612 36.43410017 121.55655823 41.15332413 121.57780075 C45.59723547 121.59725726 50.04074061 121.59725727 54.48466682 121.58276749 C56.10873958 121.58068711 57.73283823 121.58533396 59.35686684 121.5974884 C72.39569205 121.68869045 82.9205111 120.17951139 92.59375 110.69140625 C99.66965482 102.47940502 101.93011454 94.40658087 101.28125 83.80078125 C100.06887476 73.79604996 94.57797047 67.58990294 87.45703125 60.84375 C78.19376237 54.66823741 69.75476592 53.97787141 58.83203125 55.09375 C55.80423972 56.12373187 53.59363512 57.42636653 50.83203125 59.09375 C47.33203125 59.34375 47.33203125 59.34375 44.83203125 59.09375 C45.75594357 55.96504693 46.35231644 54.42355393 49.08203125 52.546875 C55.3864355 49.78869814 60.93563926 48.25830599 67.83203125 48.09375 C67.53122338 39.97193746 64.55397045 33.70085623 58.6796875 28.0078125 C51.9410093 22.54775529 45.63310967 19.56700727 36.83203125 19.71875 C36.15914062 19.70714844 35.48625 19.69554688 34.79296875 19.68359375 C29.71340544 19.71301207 26.26058678 20.79767089 21.83203125 23.09375 C20.57507858 24.87088532 20.57507858 24.87088532 20.83203125 27.09375 C21.14140625 27.96 21.45078125 28.82625 21.76953125 29.71875 C23.18871373 34.22674139 22.9987468 38.40719055 22.83203125 43.09375 C21.51203125 43.09375 20.19203125 43.09375 18.83203125 43.09375 C18.55230469 42.06636719 18.27257812 41.03898437 17.984375 39.98046875 C13.6404889 24.6982743 6.78844057 12.72691316 -7.10546875 4.28125 C-29.284327 -8.01233431 -55.68353378 -5.03131374 -73.47265625 13.875 Z " fill="#6499B7" transform="translate(152.16796875,25.90625)"/>
<path d="M0 0 C0.33 0 0.66 0 1 0 C1.81226005 11.85297997 0.91568741 20.40199589 -6.67578125 30.15234375 C-12.48545165 36.46952559 -20.80201962 40.59520556 -29.3753376 41.26285553 C-30.61523382 41.26880486 -31.85513004 41.27475418 -33.13259888 41.28088379 C-33.82754609 41.28682603 -34.5224933 41.29276828 -35.23849952 41.29889059 C-37.55504538 41.31616127 -39.87138328 41.31927217 -42.18798828 41.32226562 C-43.85411515 41.33152947 -45.52023781 41.3415798 -47.18635559 41.35235596 C-51.7052554 41.37853921 -56.22409586 41.39148155 -60.74305964 41.40037727 C-63.57042258 41.40625023 -66.39776951 41.41446207 -69.22512436 41.42338562 C-78.08312563 41.4507207 -86.94109005 41.4700603 -95.79913056 41.4777894 C-106.00221525 41.48674255 -116.20476296 41.52180622 -126.40768445 41.57979059 C-134.30857555 41.62312328 -142.20931615 41.64320327 -150.11032474 41.64587164 C-154.82246954 41.64796101 -159.53410908 41.65963035 -164.24612808 41.69551086 C-168.68362586 41.72864455 -173.12024332 41.73270202 -177.55782127 41.71523285 C-179.17826775 41.71370108 -180.79876324 41.72225853 -182.41908836 41.74214935 C-195.00825942 41.88751591 -204.18923945 39.32206512 -214 31 C-220.75856924 22.60899982 -222.33968115 15.60560026 -222 5 C-220 6 -220 6 -218.375 9.125 C-213.8149886 17.34990946 -205.69787914 22.10070695 -197 25 C-194.75256413 25.09858457 -192.50226085 25.13503608 -190.25267029 25.14044189 C-189.21810301 25.14489858 -189.21810301 25.14489858 -188.16263539 25.1494453 C-185.8459602 25.15813329 -183.52933668 25.15964065 -181.21264648 25.16113281 C-179.55357248 25.16576109 -177.89449955 25.17078576 -176.23542786 25.17617798 C-171.7226817 25.1893071 -167.20995042 25.19574847 -162.69718814 25.20018864 C-159.87606083 25.20311984 -157.05493759 25.20722484 -154.23381233 25.21169281 C-145.40250112 25.22537196 -136.57119919 25.23503535 -127.73987812 25.2388947 C-117.55502838 25.24337015 -107.37031321 25.26089244 -97.18550438 25.2898953 C-89.30849225 25.31154497 -81.43151787 25.32160081 -73.55447632 25.32293582 C-68.85256883 25.32398192 -64.15078776 25.32984763 -59.44891167 25.34775543 C-55.02068824 25.36429192 -50.59268546 25.36636466 -46.16444206 25.35761642 C-44.54478869 25.3568489 -42.92512319 25.36115094 -41.30550003 25.37107468 C-28.75934574 25.44339763 -17.91272574 24.44688829 -8 16 C-3.21803243 11.07448369 -0.14833128 6.97156997 0 0 Z " fill="#ACDAEA" transform="translate(252,106)"/>
<path d="M0 0 C5.3825965 0.48184816 9.9420121 4.80040031 14.22802734 7.77490234 C16.09771415 9.06755712 17.98037328 10.33997826 19.86328125 11.61328125 C21.13877592 12.49109133 22.41352996 13.36997867 23.6875 14.25 C24.29964355 14.6617749 24.91178711 15.0735498 25.54248047 15.49780273 C29.78389357 18.4713694 29.78389357 18.4713694 30.79125977 20.93554688 C31.16710377 24.65266602 28.35770655 27.38054269 26.25 30.25 C25.22103804 31.69638974 24.19240083 33.14301056 23.1640625 34.58984375 C22.63458008 35.3257373 22.10509766 36.06163086 21.55957031 36.81982422 C19.20016942 40.11811007 16.91370406 43.46496939 14.625 46.8125 C13.72283049 48.12381781 12.8204825 49.43501284 11.91796875 50.74609375 C9.76599369 53.8782058 7.62523717 57.01777913 5.48828125 60.16015625 C4.89772949 61.02729248 4.30717773 61.89442871 3.69873047 62.7878418 C2.54359045 64.48468387 1.39020784 66.18272394 0.23876953 67.88208008 C-0.28475098 68.65060303 -0.80827148 69.41912598 -1.34765625 70.2109375 C-2.04387085 71.23646729 -2.04387085 71.23646729 -2.75415039 72.28271484 C-4 74 -4 74 -6 76 C-11.2728817 75.94141243 -15.17794773 72.35326187 -19.25 69.375 C-20.00273193 68.83391602 -20.75546387 68.29283203 -21.53100586 67.73535156 C-26.78026313 63.94387507 -31.96532182 60.07364274 -37 56 C-36.38944098 51.85837463 -34.06607485 48.80613341 -31.75 45.4375 C-31.31034912 44.78837646 -30.87069824 44.13925293 -30.41772461 43.47045898 C-28.9512931 41.30938863 -27.47601236 39.15453604 -26 37 C-24.94376883 35.45068551 -23.88778419 33.90120292 -22.83203125 32.3515625 C-20.10461493 28.35315298 -17.367246 24.36166238 -14.62695312 20.37207031 C-13.01299083 18.01894041 -11.40428903 15.66229414 -9.796875 13.3046875 C-8.80212196 11.84893194 -7.80733207 10.39320156 -6.8125 8.9375 C-6.35496338 8.26468994 -5.89742676 7.59187988 -5.42602539 6.89868164 C-3.73321282 4.42670444 -2.12366231 2.12366231 0 0 Z " fill="#95C691" transform="translate(90,178)"/>
<path d="M0 0 C2.64 0 5.28 0 8 0 C8.33 0.99 8.66 1.98 9 3 C10.32 3 11.64 3 13 3 C13.33 2.01 13.66 1.02 14 0 C18.80290179 -1.48567666 22.24102536 -1.74363267 27 0 C31.97925629 5.35316623 35.27189837 12.12126202 38.65991211 18.5456543 C39.80416455 20.64133107 41.01334927 22.57579141 42.3828125 24.52734375 C44 27 44 27 43.8125 29.4375 C43.544375 30.283125 43.27625 31.12875 43 32 C43.020625 33.11375 43.04125 34.2275 43.0625 35.375 C41.63947824 40.23001542 39.21520332 41.86811376 35.32421875 44.91015625 C29.86020485 46.70153096 25.26646852 46.32466722 20 44 C16.4360721 40.31268121 14.09432912 36.05094429 11.6875 31.5625 C10.37946413 29.27181676 9.07087524 26.98144922 7.76171875 24.69140625 C6.83625244 23.00942139 6.83625244 23.00942139 5.89208984 21.29345703 C3.51975022 17.16405554 0.84219573 13.28469204 -1.93432617 9.41772461 C-3 7 -3 7 -2.2434082 4.31469727 C-1.8330835 3.55084717 -1.42275879 2.78699707 -1 2 C-0.67 1.34 -0.34 0.68 0 0 Z " fill="#96C791" transform="translate(181,154)"/>
<path d="M0 0 C5.3825965 0.48184816 9.9420121 4.80040031 14.22802734 7.77490234 C16.09771415 9.06755712 17.98037328 10.33997826 19.86328125 11.61328125 C21.13877592 12.49109133 22.41352996 13.36997867 23.6875 14.25 C24.29964355 14.6617749 24.91178711 15.0735498 25.54248047 15.49780273 C29.78389357 18.4713694 29.78389357 18.4713694 30.79125977 20.93554688 C31.16710377 24.65266602 28.35770655 27.38054269 26.25 30.25 C25.22103804 31.69638974 24.19240083 33.14301056 23.1640625 34.58984375 C22.63458008 35.3257373 22.10509766 36.06163086 21.55957031 36.81982422 C19.20016942 40.11811007 16.91370406 43.46496939 14.625 46.8125 C13.72283049 48.12381781 12.8204825 49.43501284 11.91796875 50.74609375 C9.76599369 53.8782058 7.62523717 57.01777913 5.48828125 60.16015625 C4.89772949 61.02729248 4.30717773 61.89442871 3.69873047 62.7878418 C2.54359045 64.48468387 1.39020784 66.18272394 0.23876953 67.88208008 C-0.28475098 68.65060303 -0.80827148 69.41912598 -1.34765625 70.2109375 C-2.04387085 71.23646729 -2.04387085 71.23646729 -2.75415039 72.28271484 C-4 74 -4 74 -6 76 C-11.2728817 75.94141243 -15.17794773 72.35326187 -19.25 69.375 C-20.00273193 68.83391602 -20.75546387 68.29283203 -21.53100586 67.73535156 C-26.78026313 63.94387507 -31.96532182 60.07364274 -37 56 C-36.38944098 51.85837463 -34.06607485 48.80613341 -31.75 45.4375 C-31.31034912 44.78837646 -30.87069824 44.13925293 -30.41772461 43.47045898 C-28.9512931 41.30938863 -27.47601236 39.15453604 -26 37 C-24.94376883 35.45068551 -23.88778419 33.90120292 -22.83203125 32.3515625 C-20.10461493 28.35315298 -17.367246 24.36166238 -14.62695312 20.37207031 C-13.01299083 18.01894041 -11.40428903 15.66229414 -9.796875 13.3046875 C-8.80212196 11.84893194 -7.80733207 10.39320156 -6.8125 8.9375 C-6.35496338 8.26468994 -5.89742676 7.59187988 -5.42602539 6.89868164 C-3.73321282 4.42670444 -2.12366231 2.12366231 0 0 Z M-3 12 C-5.77205517 14.9947102 -7.67073974 18.40731239 -9.72167969 21.92041016 C-12.39695649 26.27258888 -15.42251686 30.39591864 -18.375 34.5625 C-19.59196744 36.29239105 -20.80816221 38.02282603 -22.0234375 39.75390625 C-22.54856934 40.49970947 -23.07370117 41.2455127 -23.61474609 42.01391602 C-26.46006389 46.09334151 -27.33156419 47.76877625 -26.75 52.75 C-25.57133429 58.88204568 -23.22727117 61.46898867 -18.2890625 65.0859375 C-12.85073548 66.59730154 -8.21438885 66.17528609 -3 64 C0.50942417 60.62755398 2.81552358 56.75270479 5.25 52.5625 C6.54455136 50.45820416 7.8414196 48.35533185 9.140625 46.25390625 C10.07769287 44.69325439 10.07769287 44.69325439 11.03369141 43.10107422 C13.6017985 39.05090085 16.50767214 35.31105682 19.51025391 31.57495117 C21.84317122 27.54262097 21.47547824 24.16666993 20.3828125 19.75 C17.9327118 14.87748335 13.82551454 12.31494278 9 10 C4.67204577 10 1.01744796 10.22373963 -3 12 Z " fill="#43915C" transform="translate(90,178)"/>
<path d="M0 0 C2.5 0.125 2.5 0.125 3.5 1.125 C3.54063832 2.79117115 3.542721 4.45888095 3.5 6.125 C5.0778125 6.4653125 5.0778125 6.4653125 6.6875 6.8125 C10.69180121 7.96821295 12.93397156 9.78138719 15.5 13.125 C15.9375 15.8125 15.9375 15.8125 15.5 18.125 C13.5 20.125 13.5 20.125 10.875 20.25 C10.09125 20.20875 9.3075 20.1675 8.5 20.125 C8.231875 19.485625 7.96375 18.84625 7.6875 18.1875 C6.61332248 15.79368314 6.61332248 15.79368314 3.5 15.125 C0.8071504 14.94687376 -1.79441368 15.03772302 -4.5 15.125 C-5.79633621 16.19145115 -5.79633621 16.19145115 -5.5625 18.6875 C-5.541875 19.491875 -5.52125 20.29625 -5.5 21.125 C-4.33984375 21.57939453 -4.33984375 21.57939453 -3.15625 22.04296875 C12.69616685 28.41925028 12.69616685 28.41925028 16.5 34.125 C17.07936995 38.5643282 16.9730972 42.76484556 15.5 47 C12.66053005 50.01693682 9.35340721 51.66054163 5.5 53.125 C4.84 53.125 4.18 53.125 3.5 53.125 C3.520625 53.929375 3.54125 54.73375 3.5625 55.5625 C3.5 58.125 3.5 58.125 2.5 59.125 C0.0625 59.3125 0.0625 59.3125 -2.5 59.125 C-3.16 58.465 -3.82 57.805 -4.5 57.125 C-4.5 55.805 -4.5 54.485 -4.5 53.125 C-6.0778125 52.7846875 -6.0778125 52.7846875 -7.6875 52.4375 C-11.7067962 51.27165952 -13.9110839 49.47536202 -16.5 46.125 C-17.4375 42.9375 -17.4375 42.9375 -17.5 40.125 C-15.5 38.125 -15.5 38.125 -13.25 37.625 C-10.07249591 38.20272802 -9.72159718 38.77498037 -7.6875 41.125 C-5.91387315 43.08289977 -5.02173204 44.01675279 -2.41015625 44.55859375 C0.473087 44.56380757 2.89707933 44.42646034 5.5 43.125 C5.91746608 40.25135209 5.91746608 40.25135209 5.5 37.125 C2.56833316 34.48649984 -0.7804286 33.73120063 -4.5 32.6875 C-9.4082445 31.28514443 -12.69457092 29.53223878 -15.8125 25.375 C-16.88609504 21.86141622 -17.25347424 18.70566963 -16.5 15.125 C-14.57395125 11.60876153 -12.23776642 8.90543402 -8.54296875 7.24609375 C-6.625 6.6875 -6.625 6.6875 -3.5 6.125 C-3.520625 5.320625 -3.54125 4.51625 -3.5625 3.6875 C-3.47911354 0.26865518 -3.40649644 0.17032482 0 0 Z " fill="#43935D" transform="translate(141.5,197.875)"/>
<path d="M0 0 C6.73290711 5.02082501 15.73743936 12.51344992 17.42578125 21.1875 C17.4375 23.125 17.4375 23.125 17 26 C14.37638393 23.45134439 12.03325843 21.04371108 9.8125 18.125 C2.81858501 9.67582941 -8.41946319 4.29589287 -19 2 C-36.73193366 0.48221347 -52.81530465 3.12016942 -66.75 14.8125 C-70.27604888 18.04882109 -72.8107986 21.3528308 -75.125 25.53125 C-75.558125 26.25828125 -75.558125 26.25828125 -76 27 C-76.33 27 -76.66 27 -77 27 C-78.00103355 20.56478435 -75.58093106 16.89014875 -71.96875 11.63671875 C-54.42942537 -11.85344817 -24.19170695 -14.81256923 0 0 Z " fill="#F6FAF8" transform="translate(148,32)"/>
<path d="M0 0 C3.96 0 7.92 0 12 0 C11.58492187 1.00546875 11.16984375 2.0109375 10.7421875 3.046875 C9.77285861 6.49222582 9.98798717 6.97310561 11.5703125 10.515625 C12.39950977 11.77542533 13.25278934 13.01958806 14.125 14.25 C15.05259224 15.6428904 15.97965109 17.03613611 16.90625 18.4296875 C17.40511719 19.1628418 17.90398437 19.89599609 18.41796875 20.65136719 C21.23831341 24.83836035 23.92472154 29.11003631 26.625 33.375 C27.15754395 34.20161133 27.69008789 35.02822266 28.23876953 35.87988281 C28.72974121 36.64913086 29.22071289 37.41837891 29.7265625 38.2109375 C30.38519287 39.23646729 30.38519287 39.23646729 31.05712891 40.28271484 C32 42 32 42 32 44 C33.953125 43.96744792 35.90625 43.93489583 37.859375 43.90234375 C40 44 40 44 41.97265625 44.66015625 C45.69048052 45.28337535 48.14792665 42.88061557 51.07421875 40.81640625 C53.32938566 39.00164567 53.32938566 39.00164567 54 35.4375 C54 34.303125 54 33.16875 54 32 C54.25910156 31.26394531 54.51820313 30.52789062 54.78515625 29.76953125 C55.12255077 25.42020918 52.80587336 22.7682298 50.4375 19.25 C49.97875488 18.54278809 49.52000977 17.83557617 49.04736328 17.10693359 C46.08719131 12.560918 43.06841344 8.04817172 39.9609375 3.6015625 C39 2 39 2 39 0 C41.75561523 -0.33789062 41.75561523 -0.33789062 45 0 C47.07055664 2.25976562 47.07055664 2.25976562 48.91015625 5.40625 C49.41233925 6.24343567 49.41233925 6.24343567 49.92466736 7.09753418 C50.99172546 8.88681346 52.02722329 10.6921827 53.0625 12.5 C53.76162728 13.68610336 54.46278065 14.87101495 55.16601562 16.0546875 C56.51940245 18.33571858 57.85389865 20.62462671 59.18017578 22.921875 C60.72347755 25.53227863 62.35348468 28.02626408 64.05859375 30.53125 C66 34 66 34 65.98779297 36.46972656 C64.56680321 40.10965189 62.48772459 41.01106759 59.13671875 42.953125 C58.54832718 43.29881531 57.95993561 43.64450562 57.35371399 44.00067139 C56.10980307 44.72751187 54.86129696 45.44653715 53.60864258 46.15820312 C51.69583854 47.24526116 49.7974489 48.35448358 47.90039062 49.46875 C37.83676717 55.31754574 37.83676717 55.31754574 34 56 C29.18188734 48.92074061 24.66090638 41.67576104 20.1875 34.375 C19.47705113 33.21853702 18.76651991 32.06212464 18.0559082 30.90576172 C13.54483302 23.55772881 9.08329195 16.18231368 4.69921875 8.7578125 C3.07971144 6.02485272 3.07971144 6.02485272 1.26953125 3.7421875 C0 2 0 2 0 0 Z " fill="#43915C" transform="translate(169,154)"/>
<path d="M0 0 C0.5878125 0.27457031 1.175625 0.54914063 1.78125 0.83203125 C5.0268189 2.60778309 6.64281229 4.20466204 8.171875 7.609375 C9.3465246 12.23605609 9.75828604 15.49378703 7.5703125 19.83984375 C5.48795096 22.66359082 3.25617315 25.31389841 1 28 C-0.3664229 30.04072842 -1.70170632 32.10276559 -3 34.1875 C-3.5775 35.10917969 -4.155 36.03085938 -4.75 36.98046875 C-5.1625 37.64691406 -5.575 38.31335938 -6 39 C-7.485 38.505 -7.485 38.505 -9 38 C-7.79618552 35.50638429 -6.54571278 33.31856917 -5 31 C-4.20616593 26.06987261 -4.28476865 22.19205226 -6.875 17.875 C-11.26011609 15.24393034 -15.00433943 15.07153019 -20 16 C-22.96731398 17.83656989 -22.96731398 17.83656989 -25 20 C-25.66 20 -26.32 20 -27 20 C-24.32454463 12.48255204 -19.47758994 2.46816646 -12.29296875 -1.4921875 C-7.79146331 -2.47752452 -3.99038573 -2.48051005 0 0 Z " fill="#96C891" transform="translate(102,190)"/>
<path d="M0 0 C6.436899 3.02526032 12.37106315 7.04944262 16.49609375 12.9375 C17.36422014 15.47473127 17.49609375 17.22005718 17.49609375 19.9375 C14.58333803 18.59364581 12.27902755 17.03538886 9.80859375 15 C1.48435682 8.75300384 -7.24490181 7.83832095 -17.50390625 8.9375 C-21.81747693 10.20654773 -25.31256958 11.74616333 -28.50390625 14.9375 C-31.62890625 14.5625 -31.62890625 14.5625 -34.50390625 13.9375 C-34.83390625 11.6275 -35.16390625 9.3175 -35.50390625 6.9375 C-32.50390625 4.9375 -32.50390625 4.9375 -30.00390625 4.5 C-27.14085797 3.85581414 -26.44323962 3.04547105 -24.50390625 0.9375 C-18.1398975 -3.33123314 -7.02740671 -2.13094161 0 0 Z " fill="#F8FBF9" transform="translate(231.50390625,82.0625)"/>
<path d="M0 0 C7.00775065 3.6913444 7.00775065 3.6913444 8.85717773 5.54077148 C9.04467773 8.47827148 9.04467773 8.47827148 8.85717773 11.54077148 C8.19717773 12.20077148 7.53717773 12.86077148 6.85717773 13.54077148 C3.50975214 13.34949002 1.12828233 12.20688234 -1.70532227 10.54077148 C-8.65678207 6.49628578 -16.30468933 6.72381761 -24.14282227 7.54077148 C-31.0203847 9.86712064 -36.88226201 13.57246458 -42.14282227 18.54077148 C-43.14282227 17.54077148 -43.14282227 17.54077148 -43.58032227 15.41577148 C-42.77943145 10.1527747 -39.01325065 6.97804803 -34.91625977 3.82983398 C-24.36649989 -3.40327898 -11.88723074 -5.65286677 0 0 Z " fill="#F8FBF8" transform="translate(77.142822265625,83.459228515625)"/>
<path d="M0 0 C1.9375 0.3125 1.9375 0.3125 4 1 C4.33 1.99 4.66 2.98 5 4 C6.62948064 5.22445284 6.62948064 5.22445284 8.5625 6.1875 C10.2640625 7.0846875 10.2640625 7.0846875 12 8 C12 9.65 12 11.3 12 13 C9.625 13.125 9.625 13.125 7 13 C6.34 12.34 5.68 11.68 5 11 C1.91652174 10.83318891 1.91652174 10.83318891 -1 11 C-0.87616537 12.95507094 -0.87616537 12.95507094 0 15 C2.20761975 16.25208751 2.20761975 16.25208751 4.875 17.0625 C8.29377884 18.22368873 10.77232559 19.07527908 13 22 C13.5 25.375 13.5 25.375 13 29 C10.45862841 32.15954305 8.85377341 33.71540886 5 35 C4.26676204 37.01508358 4.26676204 37.01508358 4 39 C2.35 38.67 0.7 38.34 -1 38 C-1 36.68 -1 35.36 -1 34 C-2.1446875 33.8453125 -2.1446875 33.8453125 -3.3125 33.6875 C-6.22117209 32.94342109 -7.38010972 32.51982932 -9 30 C-8.6875 27.3125 -8.6875 27.3125 -8 25 C-5.5625 25.375 -5.5625 25.375 -3 26 C-2.67 26.66 -2.34 27.32 -2 28 C0.31 28 2.62 28 5 28 C5 26.68 5 25.36 5 24 C4.31292969 23.74605469 3.62585938 23.49210937 2.91796875 23.23046875 C2.01691406 22.88628906 1.11585938 22.54210937 0.1875 22.1875 C-0.70582031 21.85105469 -1.59914062 21.51460937 -2.51953125 21.16796875 C-4.98003507 20.00940081 -6.37085983 19.15992455 -8 17 C-8.73363286 11.94608472 -8.73363286 11.94608472 -8 9 C-5.125 6.25 -5.125 6.25 -2 4 C-0.62745412 1.85019503 -0.62745412 1.85019503 0 0 Z " fill="#4D9966" transform="translate(185,214)"/>
<path d="M0 0 C1.65 0.33 3.3 0.66 5 1 C5 1.99 5 2.98 5 4 C5.78375 4.28875 6.5675 4.5775 7.375 4.875 C10 6 10 6 12 8 C11.625 10.125 11.625 10.125 11 12 C9.68 12 8.36 12 7 12 C6.34 11.34 5.68 10.68 5 10 C1.91652174 9.83318891 1.91652174 9.83318891 -1 10 C-1 11.32 -1 12.64 -1 14 C-0.15695313 14.32613281 0.68609375 14.65226563 1.5546875 14.98828125 C2.65039062 15.42527344 3.74609375 15.86226562 4.875 16.3125 C5.96554688 16.74175781 7.05609375 17.17101562 8.1796875 17.61328125 C11 19 11 19 13 22 C13.49317401 25.78100075 13.29030409 27.51615985 11.3125 30.8125 C8.78498424 33.20339329 7.41529114 33.7153924 4 34 C4 35.32 4 36.64 4 38 C2.35 37.67 0.7 37.34 -1 37 C-1 36.01 -1 35.02 -1 34 C-1.763125 33.731875 -2.52625 33.46375 -3.3125 33.1875 C-7.41758242 31.37362637 -7.41758242 31.37362637 -9 29 C-8.6875 26.3125 -8.6875 26.3125 -8 24 C-3.34074074 24.62962963 -3.34074074 24.62962963 -1.5625 26.5625 C0.03838964 28.33952866 0.03838964 28.33952866 3.1875 28.1875 C4.115625 28.125625 5.04375 28.06375 6 28 C6 26.35 6 24.7 6 23 C5.32453125 22.82984375 4.6490625 22.6596875 3.953125 22.484375 C-5.7044904 19.86062977 -5.7044904 19.86062977 -8 16 C-8.53962749 13.21575179 -8.57541019 10.78019971 -8 8 C-6.1875 5.5 -6.1875 5.5 -4 4 C-3.01 4 -2.02 4 -1 4 C-0.67 2.68 -0.34 1.36 0 0 Z " fill="#42935D" transform="translate(56,167)"/>
<path d="M0 0 C2.76101146 1.82109266 4.52100548 3.04201097 6 6 C6.52999351 9.78566792 6.83021253 13.44856036 4.98828125 16.890625 C2.84136401 19.54687096 1.25877827 20.91374058 -2 22 C-9.14085603 22.69105058 -9.14085603 22.69105058 -12.875 19.6875 C-16.91011236 14.58426966 -16.91011236 14.58426966 -17.5 10.75 C-16.84544492 5.84083688 -14.71041555 3.19583237 -11 0 C-7.15208655 -1.28263782 -3.86988943 -0.99576102 0 0 Z " fill="#439259" transform="translate(207,161)"/>
<path d="M0 0 C2.93423195 1.79646854 4.47205355 2.9441071 6 6 C6.53118252 10.91996928 6.75105553 14.77327597 4.125 19.0625 C0.40046472 22.45839982 -2.62277778 22.38449302 -7.515625 22.36328125 C-11.2355088 21.81933598 -12.79539801 19.91576392 -15 17 C-15.33 16.67 -15.66 16.34 -16 16 C-16.55419529 11.09400888 -16.74119722 7.21062213 -14.125 2.9375 C-9.92660985 -0.89044396 -5.46648071 -0.64463216 0 0 Z " fill="#438F58" transform="translate(92,205)"/>
<path d="M0 0 C1.48683706 0.89160413 2.94948467 1.82581444 4.375 2.8125 C4.95636719 3.19664063 5.53773438 3.58078125 6.13671875 3.9765625 C10.2982909 7.05843205 13.20683415 11.15704433 15.375 15.8125 C15.6875 18.8125 15.6875 18.8125 15.375 20.8125 C14.93929687 20.42578125 14.50359375 20.0390625 14.0546875 19.640625 C5.30169917 11.98649668 -1.94698457 7.56982444 -13.75 7.5 C-14.4311084 7.49452148 -15.1122168 7.48904297 -15.81396484 7.48339844 C-20.10560905 7.54397653 -23.63449717 8.25235014 -27.625 9.8125 C-28.77515519 7.37687725 -29.60780339 5.39718481 -29.6875 2.6875 C-24.87353277 -5.80773629 -7.22255639 -3.47427978 0 0 Z " fill="#F5FAF8" transform="translate(202.625,48.1875)"/>
<path d="M0 0 C1.65 0 3.3 0 5 0 C5 0.99 5 1.98 5 3 C5.61875 3.12375 6.2375 3.2475 6.875 3.375 C9 4 9 4 11 6 C11.125 8.625 11.125 8.625 11 11 C8.525 10.505 8.525 10.505 6 10 C6 9.34 6 8.68 6 8 C3.69 8 1.38 8 -1 8 C-1 9.32 -1 10.64 -1 12 C0.216875 12.2475 1.43375 12.495 2.6875 12.75 C6.61412109 13.76129673 9.27862681 14.85341225 12 18 C12.625 21.5 12.625 21.5 12 25 C9.625 27.4375 9.625 27.4375 7 29 C6.34 29 5.68 29 5 29 C4.67 30.32 4.34 31.64 4 33 C2.68 32.67 1.36 32.34 0 32 C0 31.01 0 30.02 0 29 C-0.598125 28.896875 -1.19625 28.79375 -1.8125 28.6875 C-4.36005783 27.88683897 -5.41524098 27.13942468 -7 25 C-7 23.68 -7 22.36 -7 21 C-5.35 21 -3.7 21 -2 21 C-1.67 21.99 -1.34 22.98 -1 24 C1.31 24 3.62 24 6 24 C5.51792644 21.49641128 5.51792644 21.49641128 4 19 C0.56684863 17.82861866 0.56684863 17.82861866 -3 17 C-4.9375 15.8125 -4.9375 15.8125 -6 14 C-6.51940701 9.91894494 -6.67222913 7.87389788 -4.125 4.5625 C-2 3 -2 3 0 3 C0 2.01 0 1.02 0 0 Z " fill="#41915C" transform="translate(163,169)"/>
<path d="M0 0 C12.90027643 -0.68903554 12.90027643 -0.68903554 16.75 1.9375 C19.99121265 4.9086116 19.99121265 4.9086116 20.3125 8.25 C19.95136199 12.58365607 19.12620065 14.04747716 16 17 C13.75 17.8125 13.75 17.8125 12 18 C11.67 19.32 11.34 20.64 11 22 C9.35 21.67 7.7 21.34 6 21 C6 20.01 6 19.02 6 18 C5.13375 17.87625 5.13375 17.87625 4.25 17.75 C1.25477417 16.75159139 -0.11085148 15.51886469 -2 13 C-1.75 10.25 -1.75 10.25 -1 8 C1.375 8.3125 1.375 8.3125 4 9 C4.99 10.485 4.99 10.485 6 12 C9.08365871 12.2502157 9.08365871 12.2502157 12 12 C12.33 10.68 12.66 9.36 13 8 C12.22914062 7.67386719 11.45828125 7.34773437 10.6640625 7.01171875 C9.15972656 6.35623047 9.15972656 6.35623047 7.625 5.6875 C6.62726563 5.25824219 5.62953125 4.82898438 4.6015625 4.38671875 C2 3 2 3 0 0 Z " fill="#479663" transform="translate(113,154)"/>
<path d="M0 0 C2.64 0 5.28 0 8 0 C8.33 0.99 8.66 1.98 9 3 C10.32 3 11.64 3 13 3 C13.33 2.01 13.66 1.02 14 0 C18.29 0 22.58 0 27 0 C27.99 1.98 28.98 3.96 30 6 C29.01 6 28.02 6 27 6 C26.67 6.66 26.34 7.32 26 8 C24.906875 7.83628906 23.81375 7.67257813 22.6875 7.50390625 C17.45545742 6.84990093 12.26506338 6.89029598 7 6.9375 C6.03449219 6.94201172 5.06898438 6.94652344 4.07421875 6.95117188 C1.71607911 6.96284583 -0.64192602 6.97921979 -3 7 C-1.125 2.25 -1.125 2.25 0 0 Z " fill="#77B07C" transform="translate(181,154)"/>
<path d="M0 0 C2.78344727 -0.27832031 2.78344727 -0.27832031 6 0 C7.89038086 1.86425781 7.89038086 1.86425781 9.46484375 4.453125 C10.32239258 5.84724609 10.32239258 5.84724609 11.19726562 7.26953125 C11.77154297 8.25308594 12.34582031 9.23664063 12.9375 10.25 C13.53884766 11.21808594 14.14019531 12.18617188 14.75976562 13.18359375 C19.06579701 20.33565046 19.06579701 20.33565046 18.78344727 23.18652344 C18 25 18 25 16 27 C15.34773437 25.94941406 14.69546875 24.89882812 14.0234375 23.81640625 C13.1409301 22.39824759 12.25809626 20.98029204 11.375 19.5625 C10.9207666 18.83272949 10.4665332 18.10295898 9.99853516 17.35107422 C7.08906072 12.69363967 4.10725619 8.10375334 0.9609375 3.6015625 C0 2 0 2 0 0 Z " fill="#45925D" transform="translate(208,154)"/>
<path d="M0 0 C0.66 0 1.32 0 2 0 C2.99 2.64 3.98 5.28 5 8 C8.02419525 7.41196203 11.01758453 6.77321882 14 6 C13.67 7.32 13.34 8.64 13 10 C12.01 10 11.02 10 10 10 C10.33 10.66 10.66 11.32 11 12 C11.99 12.33 12.98 12.66 14 13 C14 13.66 14 14.32 14 15 C14.66 15.33 15.32 15.66 16 16 C14.35843264 17.64156736 12.50784199 17.28815992 10.25 17.375 C6.148061 17.35739511 5.29107066 17.23166849 1.9375 14.5625 C1.298125 13.716875 0.65875 12.87125 0 12 C-0.33 11.67 -0.66 11.34 -1 11 C-1.09823937 9.33570949 -1.12973631 7.66718069 -1.125 6 C-1.12757812 5.0925 -1.13015625 4.185 -1.1328125 3.25 C-1 1 -1 1 0 0 Z " fill="#428F57" transform="translate(77,210)"/>
<path d="M0 0 C0.99 0.33 1.98 0.66 3 1 C3.66964286 8.76785714 3.66964286 8.76785714 0.6875 12.4375 C-2.63262457 15.60320017 -4.76956487 16.13492517 -9.1875 16.0625 C-11.0746875 16.0315625 -11.0746875 16.0315625 -13 16 C-12.75 14.125 -12.75 14.125 -12 12 C-11.34 11.7215625 -10.68 11.443125 -10 11.15625 C-7.77996714 10.18307584 -7.77996714 10.18307584 -7.390625 7.8359375 C-7.34421875 7.02382812 -7.2978125 6.21171875 -7.25 5.375 C-7.19328125 4.55773437 -7.1365625 3.74046875 -7.078125 2.8984375 C-7.05234375 2.27195313 -7.0265625 1.64546875 -7 1 C-6.01 1.33 -5.02 1.66 -4 2 C-4 3.65 -4 5.3 -4 7 C-1.64214682 6.10664203 -1.64214682 6.10664203 -0.875 2.9375 C-0.58625 1.968125 -0.2975 0.99875 0 0 Z " fill="#419159" transform="translate(210,167)"/>
<path d="M0 0 C0.86625 0.37125 0.86625 0.37125 1.75 0.75 C1.09 0.75 0.43 0.75 -0.25 0.75 C-0.91 3.06 -1.57 5.37 -2.25 7.75 C1.38 9.4 5.01 11.05 8.75 12.75 C7.76 14.07 6.77 15.39 5.75 16.75 C1.96865556 16.45342397 -0.82120032 15.97808494 -4.1875 14.1875 C-6.72335414 11.19058147 -6.92656381 9.49354683 -6.67578125 5.66015625 C-5.84443534 1.9305402 -3.93460545 -0.43717838 0 0 Z " fill="#42925C" transform="translate(183.25,219.25)"/>
<path d="M0 0 C3.79918838 0.51340384 5.43134786 1.2079868 8 4 C10.09989652 5.17574711 10.09989652 5.17574711 12 6 C12 8.66666667 12 11.33333333 12 14 C10.35 13.67 8.7 13.34 7 13 C7 11.68 7 10.36 7 9 C6.236875 8.896875 5.47375 8.79375 4.6875 8.6875 C1.77882791 7.94342109 0.61989028 7.51982932 -1 5 C-0.6875 2.3125 -0.6875 2.3125 0 0 Z " fill="#45915D" transform="translate(177,239)"/>
<path d="M0 0 C3.0625 0.125 3.0625 0.125 5.0625 1.125 C5.0625 3.105 5.0625 5.085 5.0625 7.125 C4.0725 7.455 3.0825 7.785 2.0625 8.125 C1.93875 7.320625 1.815 6.51625 1.6875 5.6875 C1.48125 4.841875 1.275 3.99625 1.0625 3.125 C0.4025 2.795 -0.2575 2.465 -0.9375 2.125 C-0.92589844 2.76308594 -0.91429687 3.40117187 -0.90234375 4.05859375 C-0.89332031 4.88488281 -0.88429687 5.71117187 -0.875 6.5625 C-0.86339844 7.38621094 -0.85179687 8.20992187 -0.83984375 9.05859375 C-0.9375 11.125 -0.9375 11.125 -1.9375 12.125 C-4.62832872 11.94864548 -7.26601446 11.50664079 -9.9375 11.125 C-9.6075 8.815 -9.2775 6.505 -8.9375 4.125 C-7.9475 4.125 -6.9575 4.125 -5.9375 4.125 C-5.9375 5.775 -5.9375 7.425 -5.9375 9.125 C-5.2775 9.125 -4.6175 9.125 -3.9375 9.125 C-3.958125 7.825625 -3.97875 6.52625 -4 5.1875 C-4.02149454 3.83334367 -4.00898199 2.47743917 -3.9375 1.125 C-2.9375 0.125 -2.9375 0.125 0 0 Z " fill="#8FC88E" transform="translate(203.9375,165.875)"/>
<path d="M0 0 C1.4540625 0.0309375 1.4540625 0.0309375 2.9375 0.0625 C2.9375 0.7225 2.9375 1.3825 2.9375 2.0625 C1.9475 2.5575 1.9475 2.5575 0.9375 3.0625 C0.6075 4.0525 0.2775 5.0425 -0.0625 6.0625 C0.659375 5.546875 1.38125 5.03125 2.125 4.5 C4.9375 3.0625 4.9375 3.0625 7.6875 3.3125 C9.9375 4.0625 9.9375 4.0625 10.9375 5.0625 C10.97830783 7.06208364 10.98004356 9.06295254 10.9375 11.0625 C8.6275 11.3925 6.3175 11.7225 3.9375 12.0625 C3.9375 11.4025 3.9375 10.7425 3.9375 10.0625 C4.9275 9.7325 5.9175 9.4025 6.9375 9.0625 C7.2675 8.0725 7.5975 7.0825 7.9375 6.0625 C6.8546875 6.8359375 6.8546875 6.8359375 5.75 7.625 C2.5179634 9.27692982 1.32141693 9.12601675 -2.0625 8.0625 C-2.7225 5.7525 -3.3825 3.4425 -4.0625 1.0625 C-3.0625 0.0625 -3.0625 0.0625 0 0 Z " fill="#8DC28A" transform="translate(83.0625,209.9375)"/>
<path d="M0 0 C1.65 0 3.3 0 5 0 C5 0.99 5 1.98 5 3 C5.61875 3.12375 6.2375 3.2475 6.875 3.375 C9 4 9 4 11 6 C11.125 8.625 11.125 8.625 11 11 C9.35 10.67 7.7 10.34 6 10 C6 9.34 6 8.68 6 8 C4.02 8 2.04 8 0 8 C0 7.34 0 6.68 0 6 C-0.66 5.67 -1.32 5.34 -2 5 C-2 4.34 -2 3.68 -2 3 C-1.34 3 -0.68 3 0 3 C0 2.01 0 1.02 0 0 Z " fill="#509968" transform="translate(163,169)"/>
<path d="M0 0 C1.65 0 3.3 0 5 0 C5.33 0.99 5.66 1.98 6 3 C7.98 3 9.96 3 12 3 C12 5.64 12 8.28 12 11 C10.68 11.33 9.36 11.66 8 12 C7.67 10.68 7.34 9.36 7 8 C6.401875 7.896875 5.80375 7.79375 5.1875 7.6875 C2.63994217 6.88683897 1.58475902 6.13942468 0 4 C0 2.68 0 1.36 0 0 Z " fill="#4D9566" transform="translate(156,190)"/>
<path d="M0 0 C7.75 1.875 7.75 1.875 10 3 C10 4.65 10 6.3 10 8 C7.25 8.75 7.25 8.75 4 9 C1.8125 7.1875 1.8125 7.1875 0 5 C-0.99 4.34 -1.98 3.68 -3 3 C-2.34 3 -1.68 3 -1 3 C-0.67 2.01 -0.34 1.02 0 0 Z " fill="#EFF5EF" transform="translate(52,187)"/>
<path d="M0 0 C14.52 0 29.04 0 44 0 C44 0.33 44 0.66 44 1 C34.43 1 24.86 1 15 1 C14.67 2.32 14.34 3.64 14 5 C12.35 4.67 10.7 4.34 9 4 C9 3.01 9 2.02 9 1 C6.03 1 3.06 1 0 1 C0 0.67 0 0.34 0 0 Z " fill="#5C95AA" transform="translate(180,153)"/>
<path d="M0 0 C3.96 0 7.92 0 12 0 C10 5 10 5 7.875 6.3125 C7.25625 6.539375 6.6375 6.76625 6 7 C6.33 8.32 6.66 9.64 7 11 C4.08156555 8.373409 2.05482685 5.33023661 0 2 C0 1.34 0 0.68 0 0 Z " fill="#3B8058" transform="translate(169,154)"/>
<path d="M0 0 C0.99 0.66 1.98 1.32 3 2 C3.5 5.375 3.5 5.375 3 9 C0.625 11.4375 0.625 11.4375 -2 13 C-2.66 13 -3.32 13 -4 13 C-4 12.01 -4 11.02 -4 10 C-5.32 9.67 -6.64 9.34 -8 9 C-7.195625 8.731875 -6.39125 8.46375 -5.5625 8.1875 C-4.716875 7.795625 -3.87125 7.40375 -3 7 C-2.67 6.01 -2.34 5.02 -2 4 C-1.34 4 -0.68 4 0 4 C0 2.68 0 1.36 0 0 Z " fill="#3F8F5B" transform="translate(172,185)"/>
<path d="M0 0 C0 1.32 0 2.64 0 4 C-0.99 4.66 -1.98 5.32 -3 6 C-3.144375 6.66 -3.28875 7.32 -3.4375 8 C-4 10 -4 10 -6.0625 11.25 C-6.701875 11.4975 -7.34125 11.745 -8 12 C-7.67 11.01 -7.34 10.02 -7 9 C-6.34 9 -5.68 9 -5 9 C-5 7.35 -5 5.7 -5 4 C-6.32 3.34 -7.64 2.68 -9 2 C-5.86501708 0.14223235 -3.62528568 -0.20140476 0 0 Z " fill="#4C9B66" transform="translate(67,186)"/>
<path d="M0 0 C3.93673644 1.31224548 6.22719294 2.91910327 9 6 C8.34 6.66 7.68 7.32 7 8 C4 8 4 8 1.8125 6.8125 C0 5 0 5 -0.25 2.3125 C-0.1675 1.549375 -0.085 0.78625 0 0 Z " fill="#408955" transform="translate(64,237)"/>
<path d="M0 0 C5.75 -0.125 5.75 -0.125 8 1 C8 2.65 8 4.3 8 6 C7.34 6 6.68 6 6 6 C5.67 6.99 5.34 7.98 5 9 C4.6596875 8.0409375 4.6596875 8.0409375 4.3125 7.0625 C3.14749104 4.72806339 3.14749104 4.72806339 0.375 4.25 C-0.40875 4.1675 -1.1925 4.085 -2 4 C-1.34 3.67 -0.68 3.34 0 3 C0 2.01 0 1.02 0 0 Z " fill="#509869" transform="translate(164,183)"/>
<path d="M0 0 C2.45484649 2.13464912 3.68134222 3.70720291 4 7 C2 9 2 9 -0.625 9.125 C-1.40875 9.08375 -2.1925 9.0425 -3 9 C-3.33 7.68 -3.66 6.36 -4 5 C-3.01 4.34 -2.02 3.68 -1 3 C-0.67 2.01 -0.34 1.02 0 0 Z " fill="#399058" transform="translate(127,162)"/>
<path d="M0 0 C2.125 0.375 2.125 0.375 4 1 C4.625 2.875 4.625 2.875 5 5 C4.34 5.66 3.68 6.32 3 7 C0.875 6.625 0.875 6.625 -1 6 C-1.625 4.125 -1.625 4.125 -2 2 C-1.34 1.34 -0.68 0.68 0 0 Z " fill="#4B955E" transform="translate(96,197)"/>
<path d="M0 0 C0.33 0 0.66 0 1 0 C1 2.97 1 5.94 1 9 C-1.31 9.33 -3.62 9.66 -6 10 C-5.67 7.69 -5.34 5.38 -5 3 C-4.01 3 -3.02 3 -2 3 C-2 4.65 -2 6.3 -2 8 C-1.34 8 -0.68 8 0 8 C0 5.36 0 2.72 0 0 Z " fill="#83BC85" transform="translate(200,167)"/>
<path d="M0 0 C1.65 0 3.3 0 5 0 C5.33 1.65 5.66 3.3 6 5 C4.34385343 5.38218767 2.67542976 5.71395102 1 6 C0 5 0 5 -0.0625 2.4375 C-0.041875 1.633125 -0.02125 0.82875 0 0 Z " fill="#48955D" transform="translate(209,185)"/>
<path d="M0 0 C1.65 0 3.3 0 5 0 C5 1.65 5 3.3 5 5 C3.125 5.625 3.125 5.625 1 6 C0.34 5.34 -0.32 4.68 -1 4 C-0.625 1.875 -0.625 1.875 0 0 Z " fill="#469158" transform="translate(74,229)"/>
<path d="M0 0 C1.98 0 3.96 0 6 0 C6.66 1.65 7.32 3.3 8 5 C6.35 5.33 4.7 5.66 3 6 C0 2.25 0 2.25 0 0 Z " fill="#387A55" transform="translate(208,154)"/>
<path d="M0 0 C1.32 0.66 2.64 1.32 4 2 C4 3.65 4 5.3 4 7 C2.35 7 0.7 7 -1 7 C-1 3 -1 3 0 0 Z " fill="#408F5B" transform="translate(193,220)"/>
<path d="M0 0 C1.2065625 0.0309375 1.2065625 0.0309375 2.4375 0.0625 C2.7675 0.7225 3.0975 1.3825 3.4375 2.0625 C2.25 3.5625 2.25 3.5625 0.4375 5.0625 C-2.25 5.25 -2.25 5.25 -4.5625 5.0625 C-3.43829114 0.08386076 -3.43829114 0.08386076 0 0 Z " fill="#418D58" transform="translate(188.5625,230.9375)"/>
<path d="M0 0 C2 0.25 2 0.25 4 1 C4.33 1.99 4.66 2.98 5 4 C3.68 5.32 2.36 6.64 1 8 C0.34 5.69 -0.32 3.38 -1 1 C-0.67 0.67 -0.34 0.34 0 0 Z " fill="#489462" transform="translate(189,182)"/>
<path d="M0 0 C0.99 0.99 1.98 1.98 3 3 C2.34 4.65 1.68 6.3 1 8 C-0.32 7.34 -1.64 6.68 -3 6 C-1.125 1.125 -1.125 1.125 0 0 Z " fill="#3E8B55" transform="translate(102,219)"/>
<path d="M0 0 C1.32 0.33 2.64 0.66 4 1 C3.25 5.75 3.25 5.75 1 8 C0.67 7.01 0.34 6.02 0 5 C-0.66 4.34 -1.32 3.68 -2 3 C-1.34 2.01 -0.68 1.02 0 0 Z " fill="#499762" transform="translate(74,200)"/>
<path d="M0 0 C1.42944945 2.35438733 2.08661261 3.48032433 1.625 6.25 C1.41875 6.8275 1.2125 7.405 1 8 C-0.65 7.67 -2.3 7.34 -4 7 C-2.92598892 4.08482708 -2.22189824 2.22189824 0 0 Z " fill="#3B8853" transform="translate(70,207)"/>
<path d="M0 0 C0 1.98 0 3.96 0 6 C-1.32 5.67 -2.64 5.34 -4 5 C-4 4.01 -4 3.02 -4 2 C-4.99 1.67 -5.98 1.34 -7 1 C-4.50935112 0.31292445 -2.62113708 0 0 0 Z " fill="#579B6A" transform="translate(167,196)"/>
<path d="M0 0 C1.32 1.32 2.64 2.64 4 4 C3 6 3 6 0 8 C-1.125 5.6875 -1.125 5.6875 -2 3 C-1.34 2.01 -0.68 1.02 0 0 Z " fill="#3E8955" transform="translate(218,163)"/>
<path d="M0 0 C0.66 0.33 1.32 0.66 2 1 C-0.97 3.97 -3.94 6.94 -7 10 C-7.66 9.67 -8.32 9.34 -9 9 C-6.21000549 5.51250686 -3.74764169 2.49842779 0 0 Z " fill="#E8F2F2" transform="translate(44,86)"/>
<path d="M0 0 C0.99 1.32 1.98 2.64 3 4 C2.34 5.32 1.68 6.64 1 8 C0.01 7.67 -0.98 7.34 -2 7 C-1.125 2.25 -1.125 2.25 0 0 Z " fill="#469760" transform="translate(181,165)"/>
<path d="M0 0 C2.88437779 1.29299694 4.87219421 2.65941363 7 5 C5.35 5.33 3.7 5.66 2 6 C0 3 0 3 0 0 Z " fill="#A0CC9A" transform="translate(191,179)"/>
<path d="M0 0 C1.98 0 3.96 0 6 0 C5.67 1.32 5.34 2.64 5 4 C3.35 3.67 1.7 3.34 0 3 C0 2.01 0 1.02 0 0 Z " fill="#3C805A" transform="translate(189,154)"/>
<path d="M0 0 C0.33 0.66 0.66 1.32 1 2 C-0.4375 4.625 -0.4375 4.625 -2 7 C-2.99 6.67 -3.98 6.34 -5 6 C-3.63016497 2.83884224 -3.0109362 2.0072908 0 0 Z " fill="#9CCB98" transform="translate(98,222)"/>
<path d="M0 0 C0.33 0 0.66 0 1 0 C1.12375 0.78375 1.2475 1.5675 1.375 2.375 C1.79117993 5.14057822 1.79117993 5.14057822 4 7 C3.01 7.99 2.02 8.98 1 10 C0.01 9.67 -0.98 9.34 -2 9 C-1.67 8.67 -1.34 8.34 -1 8 C-0.76924918 6.65252916 -0.58846937 5.29622435 -0.4375 3.9375 C-0.293125 2.638125 -0.14875 1.33875 0 0 Z " fill="#86BE87" transform="translate(98,213)"/>
<path d="M0 0 C1.98 0.99 3.96 1.98 6 3 C3.42786866 4.61949011 2.32330841 5.04408751 -0.75 4.625 C-1.4925 4.41875 -2.235 4.2125 -3 4 C-2.01 2.68 -1.02 1.36 0 0 Z " fill="#4D9C63" transform="translate(80,206)"/>
<path d="M0 0 C2.97 0 5.94 0 9 0 C7.515 1.485 7.515 1.485 6 3 C3.375 2.8125 3.375 2.8125 1 2 C0.67 1.34 0.34 0.68 0 0 Z " fill="#3E9059" transform="translate(114,155)"/>
<path d="M0 0 C0.99 0 1.98 0 3 0 C1.95125002 2.62187494 1.35068687 3.79371361 -1.125 5.25 C-1.74375 5.4975 -2.3625 5.745 -3 6 C-1.125 1.125 -1.125 1.125 0 0 Z " fill="#A1CD9C" transform="translate(78,204)"/>
<path d="M0 0 C3.3 0 6.6 0 10 0 C10 0.33 10 0.66 10 1 C7.69 1.33 5.38 1.66 3 2 C3 2.66 3 3.32 3 4 C1.68 3.34 0.36 2.68 -1 2 C-0.67 1.34 -0.34 0.68 0 0 Z " fill="#3B8C54" transform="translate(82,205)"/>
<path d="M0 0 C1.65 1.65 3.3 3.3 5 5 C3.02 5.99 3.02 5.99 1 7 C1 6.34 1 5.68 1 5 C0.34 4.67 -0.32 4.34 -1 4 C-0.67 2.68 -0.34 1.36 0 0 Z " fill="#51A064" transform="translate(208,162)"/>
<path d="M0 0 C0.66 0.66 1.32 1.32 2 2 C1.01 2.66 0.02 3.32 -1 4 C-1.66 3.67 -2.32 3.34 -3 3 C-3 2.34 -3 1.68 -3 1 C-3.99 0.67 -4.98 0.34 -6 0 C-3 -1 -3 -1 0 0 Z " fill="#579F65" transform="translate(94,222)"/>
<path d="M0 0 C0.66 0 1.32 0 2 0 C2.33 1.32 2.66 2.64 3 4 C2.01 3.67 1.02 3.34 0 3 C0 5.31 0 7.62 0 10 C-0.33 10 -0.66 10 -1 10 C-1.02689216 8.52093108 -1.04634621 7.04172517 -1.0625 5.5625 C-1.07410156 4.73878906 -1.08570312 3.91507813 -1.09765625 3.06640625 C-1 1 -1 1 0 0 Z " fill="#398850" transform="translate(77,210)"/>
</svg>
